<svg width="163" height="53" viewBox="0 0 163 53" fill="none" xmlns="http://www.w3.org/2000/svg">
<path d="M9.35205 14.6894C8.88482 15.8968 8.65295 17.2461 8.65295 18.7525C8.65295 21.7238 9.57264 24.0527 11.4676 25.8728C13.3775 27.7044 15.7623 28.5978 18.7527 28.5978H39.6321V37.2507H18.7527C13.3741 37.2507 8.85476 35.4304 5.31903 31.8386C1.78679 28.2502 0 23.6789 0 18.2439C0 12.828 1.78303 8.3801 5.29649 5.02337C8.79894 1.68918 13.3252 -0.000183105 18.7527 -0.000183105H39.6321V8.65277H18.7527C15.766 8.65277 13.3888 9.57246 11.4826 11.4636C10.5294 12.4094 9.82303 13.4783 9.35205 14.6894Z" fill="#1D1D1B"/>
<path d="M81.9825 37.2507H68.9823L51.4332 22.5947C51.1568 22.3593 50.9102 22.1275 50.6896 21.8996V37.2507H42.0364V-0.000183105H50.6896V15.7508C50.9064 15.5267 51.1493 15.3024 51.4185 15.0705L68.975 -0.000183105H81.8741L59.7314 18.9355L81.9825 37.2507Z" fill="#3F77BA"/>
<path d="M115.737 -0.000183105V8.65277H102.098V37.2507H93.4972V8.65277H73.7502L83.6106 -0.000183105H115.737Z" fill="#1D1D1B"/>
<path d="M163 37.2507H150.362L140.678 27.5138H126.885V18.913H144.419C146.385 18.913 148.041 18.4871 149.335 17.6535C150.691 16.7489 151.327 15.534 151.327 13.8333C151.327 11.4226 150.542 8.65277 144.419 8.65277H125.951V37.2507H117.302V-0.000183105H143.455C148.165 -0.000183105 152.052 1.05396 155.009 3.12844C158.504 5.57272 160.279 9.19111 160.279 13.8856C160.279 17.1039 159.247 19.9148 157.218 22.2472C155.801 23.8917 153.97 25.174 151.764 26.0636L163 37.2507Z" fill="#1D1D1B"/>
<path d="M96.7974 48.076C96.7974 48.4947 96.7153 48.8798 96.5583 49.216C96.4013 49.5526 96.1769 49.8402 95.893 50.0718C95.6163 50.3037 95.2798 50.4757 94.8984 50.5952C94.5286 50.7073 94.1175 50.7634 93.6763 50.7634C93.037 50.7634 92.4203 50.655 91.8374 50.4382C91.2505 50.2216 90.7009 49.8813 90.2039 49.4329L89.9385 49.19L90.1703 48.9133L90.9851 47.9453L91.2317 47.6536L91.5159 47.904C91.8635 48.2032 92.2148 48.4311 92.5623 48.588C92.8951 48.7375 93.2802 48.8162 93.7098 48.8162C94.0464 48.8162 94.308 48.7488 94.4913 48.6216C94.637 48.5134 94.7041 48.3862 94.7041 48.2067C94.7041 48.1208 94.6894 48.0425 94.6631 47.9826C94.6408 47.934 94.596 47.8855 94.5249 47.8331C94.424 47.762 94.2745 47.6909 94.0837 47.6238C93.8706 47.5452 93.5867 47.4631 93.2464 47.3807C92.8205 47.2835 92.4354 47.1713 92.1026 47.0482C91.7438 46.9172 91.4373 46.7492 91.1869 46.5471C90.9253 46.3343 90.7234 46.0726 90.5852 45.7697C90.4505 45.4745 90.3797 45.1119 90.3797 44.7008C90.3797 44.3084 90.458 43.9421 90.615 43.6206C90.7645 43.2991 90.9813 43.0186 91.2468 42.787C91.5122 42.5552 91.8337 42.3796 92.2035 42.2562C92.5661 42.1365 92.9587 42.0769 93.3773 42.0769C93.9865 42.0769 94.5434 42.1703 95.0332 42.3496C95.5229 42.5254 95.9864 42.7908 96.4123 43.1308L96.689 43.3476L96.4834 43.6394L95.7583 44.6635L95.5377 44.9737L95.2312 44.7493C94.9059 44.5102 94.581 44.3269 94.267 44.2037C93.9677 44.0878 93.6615 44.028 93.3548 44.028C93.0483 44.028 92.8167 44.0878 92.667 44.211C92.4952 44.3532 92.4727 44.4839 92.4727 44.5811C92.4727 44.6782 92.4877 44.7568 92.514 44.8204C92.5363 44.8653 92.5924 44.9251 92.6745 44.9774C92.7791 45.052 92.9361 45.1269 93.1417 45.1943C93.3736 45.2726 93.6688 45.3548 94.0279 45.4409C94.4462 45.5493 94.8238 45.6688 95.1528 45.7997C95.5041 45.9379 95.7993 46.1137 96.0387 46.323C96.2854 46.5361 96.4759 46.7903 96.6031 47.0779C96.73 47.3659 96.7974 47.6984 96.7974 48.076Z" fill="#1D1D1B"/>
<path d="M106.048 48.6822V50.6558H99.5334V42.1896H105.992V44.1594H101.626V45.3966H105.495V47.3701H101.626V48.6822H106.048Z" fill="#1D1D1B"/>
<path d="M112.519 46.0138H110.901V44.1599H112.508C112.93 44.1599 113.248 44.242 113.461 44.4065C113.581 44.4999 113.738 44.6719 113.738 45.0831C113.738 45.3708 113.644 45.5801 113.442 45.7446C113.225 45.9241 112.912 46.0138 112.519 46.0138ZM116.036 50.0656L114.239 47.5461C114.362 47.4903 114.478 47.4305 114.586 47.3631C114.844 47.2099 115.072 47.0156 115.259 46.7875C115.446 46.5596 115.595 46.298 115.704 46.0025C115.809 45.7111 115.864 45.3745 115.864 45.012C115.864 44.5861 115.786 44.1934 115.633 43.8421C115.48 43.4871 115.255 43.1806 114.964 42.9337C114.683 42.6946 114.336 42.5078 113.932 42.3769C113.539 42.2534 113.099 42.1901 112.624 42.1901H108.807V50.6562H110.901V47.9648H112.037L113.827 50.4993L113.94 50.6562H116.459L116.036 50.0656Z" fill="#1D1D1B"/>
<path d="M126.326 42.1884L126.113 42.7042L122.902 50.4788L122.809 50.7107H121.116L121.022 50.4788L117.811 42.7042L117.598 42.1884H119.912L120.006 42.4238L121.983 47.4661L123.953 42.4238L124.046 42.1884H126.326Z" fill="#1D1D1B"/>
<path d="M130.77 50.6562H128.677V42.1901H130.77V50.6562Z" fill="#1D1D1B"/>
<path d="M141.596 49.0547L141.342 49.3163C141.14 49.5257 140.931 49.7162 140.722 49.8807C140.505 50.0527 140.266 50.2022 140.012 50.3291C139.757 50.4601 139.481 50.561 139.182 50.6394C138.954 50.6955 138.703 50.7368 138.438 50.7591L137.799 52.2466L137.653 52.5869L137.313 52.4449L136.154 51.9589L135.732 51.7832L135.989 51.4058L136.561 50.5648C136.259 50.4676 135.971 50.3367 135.705 50.1759C135.283 49.9218 134.913 49.6003 134.606 49.2267C134.304 48.8491 134.064 48.4192 133.896 47.9444C133.728 47.4735 133.642 46.9652 133.642 46.4308C133.642 45.8364 133.751 45.2645 133.96 44.7375C134.173 44.2104 134.476 43.7394 134.861 43.3433C135.246 42.9434 135.709 42.6294 136.24 42.4013C136.771 42.1697 137.361 42.0538 137.997 42.0538C138.374 42.0538 138.722 42.0873 139.036 42.1509C139.35 42.2145 139.645 42.3042 139.911 42.4239C140.176 42.5398 140.426 42.678 140.65 42.8425C140.875 42.9995 141.084 43.175 141.278 43.3621L141.533 43.6087L141.301 43.8741L140.43 44.8794L140.176 45.1711L139.892 44.9095C139.611 44.6478 139.309 44.431 138.995 44.274C138.707 44.1245 138.367 44.0496 137.985 44.0496C137.675 44.0496 137.384 44.1095 137.122 44.2292C136.857 44.3526 136.621 44.5206 136.43 44.7299C136.236 44.9393 136.083 45.1897 135.974 45.4739C135.866 45.7615 135.814 46.0793 135.814 46.4158C135.814 46.7521 135.866 47.0698 135.974 47.3615C136.083 47.6492 136.236 47.9034 136.43 48.1202C136.625 48.3295 136.857 48.5016 137.122 48.621C137.384 48.7444 137.675 48.8043 137.985 48.8043C138.393 48.8043 138.741 48.7257 139.024 48.5762C139.331 48.4117 139.641 48.1838 139.948 47.8996L140.213 47.653L140.467 47.9109L141.338 48.793L141.596 49.0547Z" fill="#1D1D1B"/>
<path d="M148.089 48.7926C147.76 48.7926 147.457 48.729 147.185 48.6058C146.908 48.4786 146.669 48.3065 146.471 48.0972C146.273 47.8806 146.116 47.6262 146.003 47.3385C145.895 47.0509 145.839 46.7369 145.839 46.4079C145.839 46.0826 145.895 45.7686 146.003 45.4809C146.116 45.1892 146.269 44.9388 146.467 44.7257C146.658 44.5202 146.893 44.3522 147.166 44.2287C147.435 44.109 147.738 44.0492 148.067 44.0492C148.392 44.0492 148.698 44.109 148.971 44.2362C149.248 44.3594 149.487 44.5314 149.681 44.7445C149.88 44.9576 150.036 45.2117 150.149 45.4994C150.261 45.7911 150.317 46.1051 150.317 46.4304C150.317 46.7591 150.261 47.0694 150.149 47.3611C150.036 47.6488 149.883 47.9029 149.689 48.1122C149.495 48.3216 149.259 48.4898 148.986 48.6095C148.717 48.729 148.414 48.7926 148.089 48.7926ZM152.16 44.722C151.947 44.1952 151.64 43.7279 151.255 43.3353C150.87 42.943 150.403 42.6252 149.865 42.3971C149.33 42.1693 148.732 42.0533 148.089 42.0533C147.442 42.0533 146.844 42.1728 146.306 42.4046C145.772 42.6365 145.305 42.9542 144.912 43.3503C144.52 43.7465 144.209 44.2174 143.992 44.7445C143.776 45.2753 143.667 45.8397 143.667 46.4304C143.667 47.0208 143.776 47.5889 143.992 48.116C144.209 48.6468 144.512 49.1141 144.897 49.5064C145.286 49.899 145.753 50.213 146.288 50.4409C146.826 50.669 147.424 50.7849 148.067 50.7849C148.71 50.7849 149.308 50.669 149.846 50.4334C150.38 50.2055 150.851 49.884 151.244 49.4879C151.636 49.0915 151.947 48.6243 152.16 48.0935C152.376 47.5667 152.488 46.9985 152.488 46.4079C152.488 45.8172 152.376 45.2528 152.16 44.722Z" fill="#1D1D1B"/>
<path d="M161.417 48.076C161.417 48.4947 161.339 48.8798 161.182 49.216C161.021 49.5526 160.797 49.8402 160.516 50.0718C160.24 50.3037 159.903 50.4757 159.522 50.5952C159.148 50.7073 158.737 50.7634 158.3 50.7634C157.661 50.7634 157.04 50.655 156.461 50.4382C155.874 50.2216 155.325 49.8813 154.828 49.4329L154.558 49.19L154.794 48.9133L155.609 47.9453L155.852 47.6536L156.14 47.904C156.483 48.2032 156.838 48.4311 157.186 48.588C157.515 48.7375 157.9 48.8162 158.33 48.8162C158.67 48.8162 158.932 48.7488 159.111 48.6216C159.261 48.5134 159.324 48.3862 159.324 48.2067C159.324 48.1208 159.313 48.0425 159.283 47.9826C159.264 47.934 159.216 47.8855 159.145 47.8331C159.044 47.762 158.894 47.6909 158.704 47.6238C158.491 47.5452 158.21 47.4631 157.866 47.3807C157.44 47.2835 157.055 47.1713 156.723 47.0482C156.368 46.9172 156.061 46.7492 155.811 46.5471C155.549 46.3343 155.343 46.0726 155.209 45.7697C155.07 45.4745 155.003 45.1119 155.003 44.7008C155.003 44.3084 155.082 43.9421 155.235 43.6206C155.388 43.2991 155.601 43.0186 155.87 42.787C156.136 42.5552 156.457 42.3796 156.827 42.2562C157.186 42.1365 157.582 42.0769 158.001 42.0769C158.606 42.0769 159.164 42.1703 159.657 42.3496C160.143 42.5254 160.606 42.7908 161.036 43.1308L161.313 43.3476L161.107 43.6394L160.378 44.6635L160.161 44.9737L159.855 44.7493C159.53 44.5102 159.205 44.3269 158.891 44.2037C158.588 44.0878 158.281 44.028 157.978 44.028C157.672 44.028 157.44 44.0878 157.291 44.211C157.119 44.3532 157.096 44.4839 157.096 44.5811C157.096 44.6782 157.111 44.7568 157.137 44.8204C157.16 44.8653 157.216 44.9251 157.295 44.9774C157.403 45.052 157.56 45.1269 157.762 45.1943C157.993 45.2726 158.289 45.3548 158.647 45.4409C159.07 45.5493 159.447 45.6688 159.773 45.7997C160.124 45.9379 160.423 46.1137 160.659 46.323C160.905 46.5361 161.096 46.7903 161.227 47.0779C161.354 47.3659 161.417 47.6984 161.417 48.076Z" fill="#1D1D1B"/>
</svg>
